<mxfile host="Electron" modified="2024-02-14T13:16:25.232Z" agent="Mozilla/5.0 (Macintosh; Intel Mac OS X 10_15_7) AppleWebKit/537.36 (KHTML, like Gecko) draw.io/23.0.2 Chrome/120.0.6099.109 Electron/28.1.0 Safari/537.36" etag="NDAo7ya1-4d5Xg2dQJzK" version="23.0.2" type="device" pages="2">
  <diagram name="main" id="m0zTKrYATkNEm8Ja8VeW">
    <mxGraphModel dx="1114" dy="687" grid="1" gridSize="10" guides="1" tooltips="1" connect="1" arrows="1" fold="1" page="1" pageScale="1" pageWidth="850" pageHeight="1100" math="0" shadow="0">
      <root>
        <mxCell id="0" />
        <mxCell id="1" parent="0" />
        <mxCell id="8d5R0X_K3MjPXmcb2jPJ-1" value="Transpile" style="rounded=1;whiteSpace=wrap;html=1;sketch=0;container=1;recursiveResize=0;verticalAlign=top;arcSize=6;fontStyle=1;autosize=0;points=[];absoluteArcSize=1;shadow=1;strokeColor=#001DBC;fillColor=#0050ef;fontColor=#ffffff;fontFamily=Helvetica;fontSize=11;" vertex="1" parent="1">
          <mxGeometry x="360" y="120" width="130" height="210" as="geometry">
            <mxRectangle x="-98" y="-1230" width="99" height="26" as="alternateBounds" />
          </mxGeometry>
        </mxCell>
        <mxCell id="8d5R0X_K3MjPXmcb2jPJ-2" value="ohmfn" style="rounded=1;whiteSpace=wrap;html=1;sketch=0;points=[[0,0.5,0,0,0],[1,0.5,0,0,0]];arcSize=50;fontFamily=Helvetica;fontSize=11;fontColor=default;fontStyle=0" vertex="1" parent="8d5R0X_K3MjPXmcb2jPJ-1">
          <mxGeometry x="-17" y="57.5" width="66" height="25" as="geometry" />
        </mxCell>
        <mxCell id="8d5R0X_K3MjPXmcb2jPJ-3" value="" style="rounded=1;whiteSpace=wrap;html=1;sketch=0;points=[[0,0.5,0,0,0],[1,0.5,0,0,0]];fillColor=#1ba1e2;fontColor=#ffffff;strokeColor=#006EAF;arcSize=50;fontFamily=Helvetica;fontSize=11;" vertex="1" parent="8d5R0X_K3MjPXmcb2jPJ-1">
          <mxGeometry x="106" y="27.5" width="35.25" height="25" as="geometry" />
        </mxCell>
        <mxCell id="8d5R0X_K3MjPXmcb2jPJ-4" value="✗" style="rounded=1;whiteSpace=wrap;html=1;sketch=0;points=[[0,0.5,0,0,0],[1,0.5,0,0,0]];fillColor=#1ba1e2;fontColor=#ffffff;strokeColor=#006EAF;arcSize=50;fontFamily=Helvetica;fontSize=11;opacity=30;textOpacity=30;" vertex="1" parent="8d5R0X_K3MjPXmcb2jPJ-1">
          <mxGeometry x="106" y="70" width="35.25" height="25" as="geometry" />
        </mxCell>
        <mxCell id="8d5R0X_K3MjPXmcb2jPJ-5" value="rwrfn" style="rounded=1;whiteSpace=wrap;html=1;sketch=0;points=[[0,0.5,0,0,0],[1,0.5,0,0,0]];arcSize=50;fontFamily=Helvetica;fontSize=11;fontColor=default;" vertex="1" parent="8d5R0X_K3MjPXmcb2jPJ-1">
          <mxGeometry x="-17" y="90" width="66" height="25" as="geometry" />
        </mxCell>
        <mxCell id="8d5R0X_K3MjPXmcb2jPJ-6" value="input" style="rounded=1;whiteSpace=wrap;html=1;sketch=0;points=[[0,0.5,0,0,0],[1,0.5,0,0,0]];arcSize=50;fontFamily=Helvetica;fontSize=11;fontColor=default;" vertex="1" parent="8d5R0X_K3MjPXmcb2jPJ-1">
          <mxGeometry x="-17" y="165" width="66" height="25" as="geometry" />
        </mxCell>
        <mxCell id="8d5R0X_K3MjPXmcb2jPJ-7" value="grammar name" style="rounded=1;whiteSpace=wrap;html=1;sketch=0;points=[[0,0.5,0,0,0],[1,0.5,0,0,0]];arcSize=50;fontFamily=Helvetica;fontSize=11;fontColor=default;" vertex="1" parent="8d5R0X_K3MjPXmcb2jPJ-1">
          <mxGeometry x="-16" y="27.5" width="66" height="25" as="geometry" />
        </mxCell>
        <mxCell id="8d5R0X_K3MjPXmcb2jPJ-8" value="rwrsupportfn" style="rounded=1;whiteSpace=wrap;html=1;sketch=0;points=[[0,0.5,0,0,0],[1,0.5,0,0,0]];arcSize=50;fontFamily=Helvetica;fontSize=11;fontColor=default;" vertex="1" parent="8d5R0X_K3MjPXmcb2jPJ-1">
          <mxGeometry x="-17" y="120" width="66" height="25" as="geometry" />
        </mxCell>
        <mxCell id="8d5R0X_K3MjPXmcb2jPJ-9" value="&#39;null.js&#39;" style="rounded=1;whiteSpace=wrap;html=1;container=1;recursiveResize=0;verticalAlign=middle;arcSize=6;fontStyle=1;autosize=0;points=[];absoluteArcSize=1;shadow=1;strokeColor=#6c8ebf;fillColor=#dae8fc;fontFamily=Helvetica;fontSize=11;gradientColor=#E6E6E6;fontColor=default;" vertex="1" parent="1">
          <mxGeometry x="150" y="240" width="110" height="20" as="geometry">
            <mxRectangle x="-98" y="-1230" width="99" height="26" as="alternateBounds" />
          </mxGeometry>
        </mxCell>
        <mxCell id="8d5R0X_K3MjPXmcb2jPJ-10" value="⍺" style="rounded=1;whiteSpace=wrap;html=1;sketch=0;points=[[0,0.5,0,0,0],[1,0.5,0,0,0]];arcSize=50;fontFamily=Helvetica;fontSize=11;fontColor=default;" vertex="1" parent="8d5R0X_K3MjPXmcb2jPJ-9">
          <mxGeometry x="100" y="3.75" width="20" height="12.5" as="geometry" />
        </mxCell>
        <mxCell id="8d5R0X_K3MjPXmcb2jPJ-11" value="⍺" style="rounded=1;whiteSpace=wrap;html=1;sketch=0;points=[[0,0.5,0,0,0],[1,0.5,0,0,0]];arcSize=50;fontFamily=Helvetica;fontSize=11;fontColor=default;" vertex="1" parent="8d5R0X_K3MjPXmcb2jPJ-9">
          <mxGeometry x="-10" y="3.75" width="20" height="12.5" as="geometry" />
        </mxCell>
        <mxCell id="8d5R0X_K3MjPXmcb2jPJ-12" value="&#39;srw.rwr&#39;" style="rounded=1;whiteSpace=wrap;html=1;container=1;recursiveResize=0;verticalAlign=middle;arcSize=6;fontStyle=1;autosize=0;points=[];absoluteArcSize=1;shadow=1;strokeColor=#6c8ebf;fillColor=#dae8fc;fontFamily=Helvetica;fontSize=11;gradientColor=#E6E6E6;fontColor=default;" vertex="1" parent="1">
          <mxGeometry x="150" y="200" width="110" height="20" as="geometry">
            <mxRectangle x="-98" y="-1230" width="99" height="26" as="alternateBounds" />
          </mxGeometry>
        </mxCell>
        <mxCell id="8d5R0X_K3MjPXmcb2jPJ-13" value="⍺" style="rounded=1;whiteSpace=wrap;html=1;sketch=0;points=[[0,0.5,0,0,0],[1,0.5,0,0,0]];arcSize=50;fontFamily=Helvetica;fontSize=11;fontColor=default;" vertex="1" parent="8d5R0X_K3MjPXmcb2jPJ-12">
          <mxGeometry x="100" y="3.75" width="20" height="12.5" as="geometry" />
        </mxCell>
        <mxCell id="8d5R0X_K3MjPXmcb2jPJ-14" value="⍺" style="rounded=1;whiteSpace=wrap;html=1;sketch=0;points=[[0,0.5,0,0,0],[1,0.5,0,0,0]];arcSize=50;fontFamily=Helvetica;fontSize=11;fontColor=default;" vertex="1" parent="8d5R0X_K3MjPXmcb2jPJ-12">
          <mxGeometry x="-10" y="3.75" width="20" height="12.5" as="geometry" />
        </mxCell>
        <mxCell id="8d5R0X_K3MjPXmcb2jPJ-15" value="&#39;srw.ohm&#39;" style="rounded=1;whiteSpace=wrap;html=1;container=1;recursiveResize=0;verticalAlign=middle;arcSize=6;fontStyle=1;autosize=0;points=[];absoluteArcSize=1;shadow=1;strokeColor=#6c8ebf;fillColor=#dae8fc;fontFamily=Helvetica;fontSize=11;gradientColor=#E6E6E6;fontColor=default;" vertex="1" parent="1">
          <mxGeometry x="150" y="160" width="110" height="20" as="geometry">
            <mxRectangle x="-98" y="-1230" width="99" height="26" as="alternateBounds" />
          </mxGeometry>
        </mxCell>
        <mxCell id="8d5R0X_K3MjPXmcb2jPJ-16" value="⍺" style="rounded=1;whiteSpace=wrap;html=1;sketch=0;points=[[0,0.5,0,0,0],[1,0.5,0,0,0]];arcSize=50;fontFamily=Helvetica;fontSize=11;fontColor=default;" vertex="1" parent="8d5R0X_K3MjPXmcb2jPJ-15">
          <mxGeometry x="100" y="3.75" width="20" height="12.5" as="geometry" />
        </mxCell>
        <mxCell id="8d5R0X_K3MjPXmcb2jPJ-17" value="⍺" style="rounded=1;whiteSpace=wrap;html=1;sketch=0;points=[[0,0.5,0,0,0],[1,0.5,0,0,0]];arcSize=50;fontFamily=Helvetica;fontSize=11;fontColor=default;" vertex="1" parent="8d5R0X_K3MjPXmcb2jPJ-15">
          <mxGeometry x="-10" y="3.75" width="20" height="12.5" as="geometry" />
        </mxCell>
        <mxCell id="8d5R0X_K3MjPXmcb2jPJ-18" value="&#39;srw&#39;" style="rounded=1;whiteSpace=wrap;html=1;container=1;recursiveResize=0;verticalAlign=middle;arcSize=6;fontStyle=1;autosize=0;points=[];absoluteArcSize=1;shadow=1;strokeColor=#6c8ebf;fillColor=#dae8fc;fontFamily=Helvetica;fontSize=11;gradientColor=#E6E6E6;fontColor=default;" vertex="1" parent="1">
          <mxGeometry x="150" y="120" width="110" height="20" as="geometry">
            <mxRectangle x="-98" y="-1230" width="99" height="26" as="alternateBounds" />
          </mxGeometry>
        </mxCell>
        <mxCell id="8d5R0X_K3MjPXmcb2jPJ-19" value="⍺" style="rounded=1;whiteSpace=wrap;html=1;sketch=0;points=[[0,0.5,0,0,0],[1,0.5,0,0,0]];arcSize=50;fontFamily=Helvetica;fontSize=11;fontColor=default;" vertex="1" parent="8d5R0X_K3MjPXmcb2jPJ-18">
          <mxGeometry x="100" y="3.75" width="20" height="12.5" as="geometry" />
        </mxCell>
        <mxCell id="8d5R0X_K3MjPXmcb2jPJ-20" value="⍺" style="rounded=1;whiteSpace=wrap;html=1;sketch=0;points=[[0,0.5,0,0,0],[1,0.5,0,0,0]];arcSize=50;fontFamily=Helvetica;fontSize=11;fontColor=default;" vertex="1" parent="8d5R0X_K3MjPXmcb2jPJ-18">
          <mxGeometry x="-10" y="3.75" width="20" height="12.5" as="geometry" />
        </mxCell>
        <mxCell id="8d5R0X_K3MjPXmcb2jPJ-21" style="edgeStyle=orthogonalEdgeStyle;rounded=1;orthogonalLoop=1;jettySize=auto;html=1;exitX=1;exitY=0.5;exitDx=0;exitDy=0;exitPerimeter=0;entryX=0;entryY=0.5;entryDx=0;entryDy=0;entryPerimeter=0;strokeWidth=2;curved=0;" edge="1" parent="1" source="8d5R0X_K3MjPXmcb2jPJ-10" target="8d5R0X_K3MjPXmcb2jPJ-8">
          <mxGeometry relative="1" as="geometry" />
        </mxCell>
        <mxCell id="8d5R0X_K3MjPXmcb2jPJ-22" style="edgeStyle=orthogonalEdgeStyle;shape=connector;curved=0;rounded=1;orthogonalLoop=1;jettySize=auto;html=1;exitX=1;exitY=0.5;exitDx=0;exitDy=0;exitPerimeter=0;entryX=0;entryY=0.5;entryDx=0;entryDy=0;entryPerimeter=0;labelBackgroundColor=default;strokeColor=default;strokeWidth=2;align=center;verticalAlign=middle;fontFamily=Helvetica;fontSize=11;fontColor=default;endArrow=classic;" edge="1" parent="1" source="8d5R0X_K3MjPXmcb2jPJ-13" target="8d5R0X_K3MjPXmcb2jPJ-5">
          <mxGeometry relative="1" as="geometry" />
        </mxCell>
        <mxCell id="8d5R0X_K3MjPXmcb2jPJ-23" style="edgeStyle=orthogonalEdgeStyle;shape=connector;curved=0;rounded=1;orthogonalLoop=1;jettySize=auto;html=1;exitX=1;exitY=0.5;exitDx=0;exitDy=0;exitPerimeter=0;entryX=0;entryY=0.5;entryDx=0;entryDy=0;entryPerimeter=0;labelBackgroundColor=default;strokeColor=default;strokeWidth=2;align=center;verticalAlign=middle;fontFamily=Helvetica;fontSize=11;fontColor=default;endArrow=classic;" edge="1" parent="1" source="8d5R0X_K3MjPXmcb2jPJ-16" target="8d5R0X_K3MjPXmcb2jPJ-2">
          <mxGeometry relative="1" as="geometry" />
        </mxCell>
        <mxCell id="8d5R0X_K3MjPXmcb2jPJ-24" style="edgeStyle=orthogonalEdgeStyle;shape=connector;curved=0;rounded=1;orthogonalLoop=1;jettySize=auto;html=1;exitX=1;exitY=0.5;exitDx=0;exitDy=0;exitPerimeter=0;entryX=0;entryY=0.5;entryDx=0;entryDy=0;entryPerimeter=0;labelBackgroundColor=default;strokeColor=default;strokeWidth=2;align=center;verticalAlign=middle;fontFamily=Helvetica;fontSize=11;fontColor=default;endArrow=classic;" edge="1" parent="1" source="8d5R0X_K3MjPXmcb2jPJ-19" target="8d5R0X_K3MjPXmcb2jPJ-7">
          <mxGeometry relative="1" as="geometry" />
        </mxCell>
        <mxCell id="8d5R0X_K3MjPXmcb2jPJ-25" value="" style="rhombus;whiteSpace=wrap;html=1;rounded=1;fontStyle=1;glass=0;sketch=0;fontSize=12;points=[[0,0.5,0,0,0],[0.5,0,0,0,0],[0.5,1,0,0,0],[1,0.5,0,0,0]];shadow=1;fontFamily=Helvetica;fontColor=default;" vertex="1" parent="1">
          <mxGeometry x="20" y="300" width="40" height="40" as="geometry" />
        </mxCell>
        <mxCell id="8d5R0X_K3MjPXmcb2jPJ-27" value="" style="rhombus;whiteSpace=wrap;html=1;rounded=1;fontStyle=1;glass=0;sketch=0;fontSize=12;points=[[0,0.5,0,0,0],[0.5,0,0,0,0],[0.5,1,0,0,0],[1,0.5,0,0,0]];shadow=1;fillColor=#0050ef;fontColor=#ffffff;strokeColor=#001DBC;fontFamily=Helvetica;" vertex="1" parent="1">
          <mxGeometry x="560" y="140" width="40" height="40" as="geometry" />
        </mxCell>
        <mxCell id="8d5R0X_K3MjPXmcb2jPJ-28" style="edgeStyle=orthogonalEdgeStyle;shape=connector;curved=0;rounded=1;orthogonalLoop=1;jettySize=auto;html=1;exitX=1;exitY=0.5;exitDx=0;exitDy=0;exitPerimeter=0;labelBackgroundColor=default;strokeColor=default;strokeWidth=2;align=center;verticalAlign=middle;fontFamily=Helvetica;fontSize=11;fontColor=default;endArrow=classic;" edge="1" parent="1" source="8d5R0X_K3MjPXmcb2jPJ-3" target="8d5R0X_K3MjPXmcb2jPJ-27">
          <mxGeometry relative="1" as="geometry" />
        </mxCell>
        <mxCell id="8d5R0X_K3MjPXmcb2jPJ-29" value="✗" style="rhombus;whiteSpace=wrap;html=1;rounded=1;fillColor=#0050ef;fontColor=#ffffff;strokeColor=#001DBC;fontStyle=1;glass=0;sketch=0;fontSize=12;points=[[0,0.5,0,0,0],[0.5,0,0,0,0],[0.5,1,0,0,0],[1,0.5,0,0,0]];shadow=1;opacity=30;textOpacity=30;fontFamily=Helvetica;" vertex="1" parent="1">
          <mxGeometry x="560" y="220" width="40" height="40" as="geometry" />
        </mxCell>
        <mxCell id="8d5R0X_K3MjPXmcb2jPJ-30" style="edgeStyle=orthogonalEdgeStyle;shape=connector;curved=0;rounded=1;orthogonalLoop=1;jettySize=auto;html=1;exitX=1;exitY=0.5;exitDx=0;exitDy=0;exitPerimeter=0;entryX=0;entryY=0.5;entryDx=0;entryDy=0;entryPerimeter=0;labelBackgroundColor=default;strokeColor=default;strokeWidth=1;align=center;verticalAlign=middle;fontFamily=Helvetica;fontSize=11;fontColor=default;endArrow=classic;opacity=30;" edge="1" parent="1" source="8d5R0X_K3MjPXmcb2jPJ-4" target="8d5R0X_K3MjPXmcb2jPJ-29">
          <mxGeometry relative="1" as="geometry" />
        </mxCell>
        <mxCell id="8d5R0X_K3MjPXmcb2jPJ-31" value="Read Text File" style="rounded=1;whiteSpace=wrap;html=1;sketch=0;container=1;recursiveResize=0;verticalAlign=top;arcSize=6;fontStyle=1;autosize=0;points=[];absoluteArcSize=1;shadow=1;strokeColor=#001DBC;fillColor=#0050ef;fontColor=#ffffff;fontFamily=Helvetica;fontSize=11;" vertex="1" parent="1">
          <mxGeometry x="150" y="280" width="130" height="110" as="geometry">
            <mxRectangle x="-98" y="-1230" width="99" height="26" as="alternateBounds" />
          </mxGeometry>
        </mxCell>
        <mxCell id="8d5R0X_K3MjPXmcb2jPJ-32" value="" style="rounded=1;whiteSpace=wrap;html=1;sketch=0;points=[[0,0.5,0,0,0],[1,0.5,0,0,0]];arcSize=50;fontFamily=Helvetica;fontSize=11;fontColor=default;" vertex="1" parent="8d5R0X_K3MjPXmcb2jPJ-31">
          <mxGeometry x="-10" y="27.5" width="39.25" height="25" as="geometry" />
        </mxCell>
        <mxCell id="8d5R0X_K3MjPXmcb2jPJ-33" value="" style="rounded=1;whiteSpace=wrap;html=1;sketch=0;points=[[0,0.5,0,0,0],[1,0.5,0,0,0]];fillColor=#1ba1e2;fontColor=#ffffff;strokeColor=#006EAF;arcSize=50;fontFamily=Helvetica;fontSize=11;" vertex="1" parent="8d5R0X_K3MjPXmcb2jPJ-31">
          <mxGeometry x="110" y="27.5" width="35.25" height="25" as="geometry" />
        </mxCell>
        <mxCell id="8d5R0X_K3MjPXmcb2jPJ-34" value="✗" style="rounded=1;whiteSpace=wrap;html=1;sketch=0;points=[[0,0.5,0,0,0],[1,0.5,0,0,0]];fillColor=#1ba1e2;fontColor=#ffffff;strokeColor=#006EAF;arcSize=50;fontFamily=Helvetica;fontSize=11;textOpacity=30;opacity=30;" vertex="1" parent="8d5R0X_K3MjPXmcb2jPJ-31">
          <mxGeometry x="110" y="67.5" width="35.25" height="25" as="geometry" />
        </mxCell>
        <mxCell id="8d5R0X_K3MjPXmcb2jPJ-35" style="edgeStyle=orthogonalEdgeStyle;shape=connector;curved=0;rounded=1;orthogonalLoop=1;jettySize=auto;html=1;exitX=1;exitY=0.5;exitDx=0;exitDy=0;exitPerimeter=0;entryX=0;entryY=0.5;entryDx=0;entryDy=0;entryPerimeter=0;labelBackgroundColor=default;strokeColor=default;strokeWidth=2;align=center;verticalAlign=middle;fontFamily=Helvetica;fontSize=11;fontColor=default;endArrow=classic;" edge="1" parent="1" source="8d5R0X_K3MjPXmcb2jPJ-33" target="8d5R0X_K3MjPXmcb2jPJ-6">
          <mxGeometry relative="1" as="geometry" />
        </mxCell>
        <mxCell id="8d5R0X_K3MjPXmcb2jPJ-36" style="edgeStyle=orthogonalEdgeStyle;shape=connector;curved=0;rounded=1;orthogonalLoop=1;jettySize=auto;html=1;entryX=0;entryY=0.5;entryDx=0;entryDy=0;entryPerimeter=0;labelBackgroundColor=default;strokeColor=default;strokeWidth=2;align=center;verticalAlign=middle;fontFamily=Helvetica;fontSize=11;fontColor=default;endArrow=classic;" edge="1" parent="1" source="8d5R0X_K3MjPXmcb2jPJ-25" target="8d5R0X_K3MjPXmcb2jPJ-32">
          <mxGeometry relative="1" as="geometry" />
        </mxCell>
        <mxCell id="8d5R0X_K3MjPXmcb2jPJ-37" style="edgeStyle=orthogonalEdgeStyle;shape=connector;curved=0;rounded=1;orthogonalLoop=1;jettySize=auto;html=1;exitX=1;exitY=0.5;exitDx=0;exitDy=0;exitPerimeter=0;entryX=0;entryY=0.5;entryDx=0;entryDy=0;entryPerimeter=0;labelBackgroundColor=default;strokeColor=default;strokeWidth=1;align=center;verticalAlign=middle;fontFamily=Helvetica;fontSize=11;fontColor=default;endArrow=classic;opacity=30;" edge="1" parent="1" source="8d5R0X_K3MjPXmcb2jPJ-25" target="8d5R0X_K3MjPXmcb2jPJ-11">
          <mxGeometry relative="1" as="geometry" />
        </mxCell>
        <mxCell id="8d5R0X_K3MjPXmcb2jPJ-38" style="edgeStyle=orthogonalEdgeStyle;shape=connector;curved=0;rounded=1;orthogonalLoop=1;jettySize=auto;html=1;exitX=1;exitY=0.5;exitDx=0;exitDy=0;exitPerimeter=0;entryX=0;entryY=0.5;entryDx=0;entryDy=0;entryPerimeter=0;labelBackgroundColor=default;strokeColor=default;strokeWidth=1;align=center;verticalAlign=middle;fontFamily=Helvetica;fontSize=11;fontColor=default;endArrow=classic;opacity=30;" edge="1" parent="1" source="8d5R0X_K3MjPXmcb2jPJ-25" target="8d5R0X_K3MjPXmcb2jPJ-14">
          <mxGeometry relative="1" as="geometry" />
        </mxCell>
        <mxCell id="8d5R0X_K3MjPXmcb2jPJ-39" style="edgeStyle=orthogonalEdgeStyle;shape=connector;curved=0;rounded=1;orthogonalLoop=1;jettySize=auto;html=1;exitX=1;exitY=0.5;exitDx=0;exitDy=0;exitPerimeter=0;entryX=0;entryY=0.5;entryDx=0;entryDy=0;entryPerimeter=0;labelBackgroundColor=default;strokeColor=default;strokeWidth=1;align=center;verticalAlign=middle;fontFamily=Helvetica;fontSize=11;fontColor=default;endArrow=classic;opacity=30;" edge="1" parent="1" source="8d5R0X_K3MjPXmcb2jPJ-25" target="8d5R0X_K3MjPXmcb2jPJ-17">
          <mxGeometry relative="1" as="geometry" />
        </mxCell>
        <mxCell id="8d5R0X_K3MjPXmcb2jPJ-40" style="edgeStyle=orthogonalEdgeStyle;shape=connector;curved=0;rounded=1;orthogonalLoop=1;jettySize=auto;html=1;exitX=1;exitY=0.5;exitDx=0;exitDy=0;exitPerimeter=0;entryX=0;entryY=0.5;entryDx=0;entryDy=0;entryPerimeter=0;labelBackgroundColor=default;strokeColor=default;strokeWidth=1;align=center;verticalAlign=middle;fontFamily=Helvetica;fontSize=11;fontColor=default;endArrow=classic;opacity=30;" edge="1" parent="1" source="8d5R0X_K3MjPXmcb2jPJ-25" target="8d5R0X_K3MjPXmcb2jPJ-20">
          <mxGeometry relative="1" as="geometry" />
        </mxCell>
      </root>
    </mxGraphModel>
  </diagram>
  <diagram id="tdX2_95LEIDNDVLNdQ2E" name="...">
    <mxGraphModel dx="1114" dy="693" grid="1" gridSize="10" guides="1" tooltips="1" connect="1" arrows="1" fold="1" page="1" pageScale="1" pageWidth="850" pageHeight="1100" math="0" shadow="0">
      <root>
        <mxCell id="0" />
        <mxCell id="1" parent="0" />
      </root>
    </mxGraphModel>
  </diagram>
</mxfile>
